<svg width="875" height="312" viewBox="0 0 875 312" fill="none" xmlns="http://www.w3.org/2000/svg">
<rect x="552.28" y="154.31" width="352.448" height="41.8032" transform="rotate(-10.4139 552.28 154.31)" fill="#00FF4C"/>
<path d="M635.022 170.534L631.981 154.012L635.551 153.355L638.592 169.877L635.022 170.534ZM635.038 170.623L634.479 167.584L645.72 165.516L646.279 168.555L635.038 170.623ZM656.024 167.189C653.31 167.688 651.092 167.293 649.37 166.003C647.644 164.694 646.537 162.712 646.048 160.056C645.726 158.306 645.752 156.735 646.127 155.344C646.517 153.93 647.267 152.755 648.376 151.819C649.481 150.863 650.968 150.214 652.837 149.87C655.571 149.367 657.791 149.772 659.497 151.085C661.199 152.378 662.293 154.343 662.778 156.978C663.093 158.69 663.057 160.262 662.67 161.696C662.279 163.11 661.531 164.295 660.426 165.25C659.321 166.206 657.854 166.852 656.024 167.189ZM655.33 163.748C656.431 163.545 657.304 163.151 657.949 162.564C658.594 161.978 659.02 161.259 659.23 160.407C659.435 159.535 659.448 158.608 659.267 157.624C659.086 156.641 658.744 155.779 658.241 155.037C657.739 154.296 657.08 153.756 656.266 153.418C655.471 153.076 654.513 153.008 653.392 153.215C651.818 153.504 650.699 154.218 650.034 155.358C649.389 156.493 649.211 157.848 649.501 159.421C649.678 160.385 650.018 161.237 650.52 161.979C651.039 162.697 651.696 163.227 652.491 163.569C653.282 163.891 654.228 163.95 655.33 163.748ZM672.253 146.603L676.03 145.908L674.972 150.77L675.104 163.252L669.38 164.305L662.694 148.361L666.47 147.667L671.941 162.309L672.253 146.603ZM681.754 144.855L685.531 144.16L685.076 161.417L679.352 162.47L674.972 150.77L672.194 146.614L676.03 145.908L681.943 160.468L681.754 144.855ZM696.894 159.243L693.837 142.632L700.269 141.449C701.725 141.181 702.995 141.12 704.079 141.266C705.16 141.393 706.043 141.769 706.727 142.396C707.428 142.999 707.891 143.91 708.115 145.13C708.289 146.074 708.291 146.917 708.123 147.66C707.955 148.403 707.62 149.013 707.118 149.492C706.636 149.967 706.012 150.275 705.244 150.416C705.775 150.319 706.208 150.351 706.543 150.513C706.875 150.655 707.151 150.889 707.374 151.214C707.593 151.52 707.766 151.854 707.894 152.217C708.041 152.576 708.177 152.927 708.301 153.27C708.445 153.61 708.6 153.897 708.765 154.131C708.946 154.341 709.181 154.461 709.471 154.489C709.757 154.497 710.128 154.358 710.584 154.071L710.953 156.077C710.573 156.554 710.099 156.905 709.531 157.132C708.962 157.358 708.385 157.424 707.798 157.329C707.211 157.233 706.678 156.935 706.199 156.433C705.736 155.908 705.411 155.134 705.223 154.111C705.125 153.58 705.01 153.123 704.879 152.741C704.764 152.335 704.584 152.022 704.34 151.803C704.113 151.56 703.789 151.406 703.371 151.341C702.968 151.252 702.43 151.259 701.758 151.363C701.102 151.443 700.258 151.608 699.226 151.859L700.464 158.586L696.894 159.243ZM698.759 149.322L701.267 148.86C702.211 148.687 702.973 148.516 703.552 148.348C704.151 148.177 704.571 147.917 704.812 147.568C705.052 147.218 705.109 146.699 704.983 146.011C704.834 145.205 704.554 144.677 704.142 144.427C703.727 144.158 703.169 144.057 702.47 144.125C701.77 144.192 700.909 144.32 699.887 144.508L697.939 144.867L698.759 149.322ZM712.861 156.305L714.85 138.766L720.692 137.691L728.971 153.342L725.165 154.042L718.131 139.688L716.697 155.6L712.861 156.305ZM715.853 151.18L715.259 148.452L723.816 146.878L724.291 149.627L715.853 151.18ZM738.352 151.921C736.798 152.207 735.324 152.153 733.93 151.758C732.536 151.364 731.339 150.608 730.34 149.49C729.357 148.349 728.704 146.843 728.38 144.971C728.059 143.118 728.143 141.476 728.632 140.044C729.141 138.608 729.973 137.438 731.128 136.534C732.28 135.61 733.662 135 735.275 134.703C736.869 134.41 738.278 134.446 739.504 134.81C740.731 135.174 741.747 135.78 742.554 136.628C743.38 137.473 743.999 138.457 744.409 139.581L740.721 140.26C740.451 139.455 740.042 138.89 739.494 138.564C738.942 138.218 738.337 138.024 737.679 137.983C737.04 137.938 736.445 137.966 735.894 138.067C734.262 138.367 733.104 139.038 732.421 140.079C731.738 141.119 731.545 142.446 731.842 144.059C732.16 145.79 732.82 147.052 733.82 147.844C734.819 148.636 736.146 148.88 737.798 148.576C738.388 148.467 738.972 148.269 739.549 147.979C740.146 147.686 740.638 147.27 741.027 146.731C741.432 146.169 741.618 145.463 741.584 144.616L745.272 143.937C745.292 145.153 745.07 146.323 744.606 147.446C744.138 148.548 743.387 149.5 742.355 150.3C741.339 151.077 740.005 151.617 738.352 151.921ZM751.167 148.709L748.305 133.16L751.846 132.509L754.707 148.058L751.167 148.709ZM749.081 149.642L748.522 146.603L756.4 145.154L756.959 148.193L749.081 149.642ZM746.583 136.07L746.024 133.031L753.902 131.582L754.461 134.621L746.583 136.07ZM768.786 128.843L772.504 128.159L775.561 144.771L768.745 146.024L761.58 131.786L761.521 131.797L764.29 146.844L760.602 147.523L757.545 130.911L763.859 129.75L771.496 143.902L771.555 143.891L768.786 128.843ZM785.834 143.216C784.221 143.513 782.735 143.451 781.376 143.029C780.037 142.605 778.928 141.823 778.047 140.683C777.162 139.524 776.56 138.018 776.239 136.166C775.954 134.286 776.056 132.63 776.545 131.198C777.054 129.763 777.886 128.593 779.041 127.689C780.197 126.785 781.591 126.183 783.223 125.882C785.564 125.452 787.445 125.614 788.865 126.37C790.285 127.125 791.374 128.399 792.131 130.192L788.806 131.353C788.488 130.618 788.054 130.088 787.506 129.761C786.974 129.412 786.387 129.205 785.745 129.14C785.102 129.075 784.466 129.1 783.837 129.216C782.067 129.542 780.857 130.263 780.208 131.379C779.576 132.471 779.407 133.763 779.702 135.254C780.02 136.985 780.735 138.216 781.845 138.947C782.976 139.675 784.426 139.876 786.196 139.55C786.826 139.434 787.421 139.243 787.982 138.977C788.559 138.688 789.048 138.303 789.447 137.823C789.847 137.343 790.084 136.75 790.157 136.045L787 136.626L786.528 134.059L792.99 132.871L794.537 141.279L792.147 141.719L790.889 139.358L790.83 139.369C790.738 139.752 790.565 140.139 790.312 140.532C790.059 140.924 789.721 141.301 789.3 141.663C788.895 142.002 788.402 142.306 787.821 142.576C787.244 142.865 786.581 143.079 785.834 143.216Z" fill="black"/>
<path d="M839.692 109.792L842.592 120.022L848.453 111.981L844.091 121.166L853.541 120.359L844.472 123.118L851.976 130.018L843.513 124.735L844.674 135.3L841.774 125.07L835.913 133.111L840.275 123.926L830.825 124.733L839.894 121.974L832.39 115.074L840.853 120.357L839.692 109.792Z" fill="black"/>
<rect x="321.379" y="65.3965" width="607.538" height="41.8032" transform="rotate(19.8529 321.379 65.3965)" fill="#E6DD06"/>
<rect x="14.7861" y="-45.3036" width="934.93" height="41.8032" transform="rotate(19.8529 14.7861 -45.3036)" fill="#00FF4C"/>
<path d="M638.963 190.94L636.311 201.237L645.424 197.245L637.029 202.98L645.594 207.045L636.374 204.858L639.375 214.599L634.731 205.771L630.41 215.481L633.061 205.184L623.949 209.176L632.343 203.441L623.778 199.376L632.998 201.563L629.997 191.822L634.642 200.65L638.963 190.94Z" fill="black"/>
<path d="M164.711 42.0139L170.494 26.1447L182.138 30.3785L181.08 33.2817L172.763 30.2576L171.469 33.8092L177.784 36.1054L176.778 38.8678L170.462 36.5715L169.035 40.4895L177.662 43.6264L176.666 46.3605L164.711 42.0139ZM179.336 47.3315L185.119 31.4622L191.04 33.615L188.826 49.1539L188.882 49.1744L197.13 35.8293L203.022 37.9718L197.24 53.8411L193.715 52.5596L199.218 38.2484L199.161 38.2279L190.783 51.4935L185.821 49.6893L187.968 34.1581L187.912 34.1376L182.861 48.6129L179.336 47.3315ZM206.205 57.1008L211.988 41.2315L218.529 43.6098C218.961 43.767 219.443 43.9635 219.974 44.1993C220.505 44.4351 221.029 44.7212 221.545 45.0578C222.08 45.4012 222.527 45.8087 222.888 46.2802C223.267 46.7585 223.511 47.3154 223.62 47.9509C223.736 48.5677 223.647 49.28 223.352 50.0881C223.133 50.6894 222.805 51.2087 222.369 51.646C221.94 52.0645 221.357 52.3207 220.62 52.4147C219.884 52.5086 218.9 52.3744 217.67 52.0122L217.629 52.125C218.994 52.6427 219.978 53.2133 220.581 53.8369C221.21 54.4485 221.566 55.078 221.649 55.7255C221.751 56.3798 221.672 57.0639 221.412 57.778C221.111 58.6048 220.701 59.2326 220.183 59.6614C219.665 60.0902 219.088 60.3592 218.452 60.4685C217.816 60.5778 217.164 60.5855 216.496 60.4915C215.828 60.3975 215.167 60.2531 214.515 60.0583C213.881 59.8704 213.319 59.6875 212.831 59.5099L206.205 57.1008ZM210.556 55.5866L213.517 56.663C214.193 56.909 214.824 57.1063 215.408 57.255C216.018 57.3917 216.553 57.384 217.013 57.232C217.499 57.068 217.861 56.6572 218.101 55.9995C218.347 55.323 218.334 54.7755 218.061 54.3569C217.813 53.9264 217.402 53.5642 216.828 53.2704C216.273 52.9833 215.648 52.7134 214.952 52.4605L212.076 51.4149L210.556 55.5866ZM212.973 48.8678L215.764 49.8827C216.347 50.0946 216.902 50.2646 217.43 50.3927C217.984 50.5089 218.465 50.503 218.873 50.3748C219.307 50.2348 219.634 49.8641 219.853 49.2628C220.072 48.6614 220.067 48.1806 219.836 47.8201C219.612 47.4408 219.244 47.1367 218.732 46.9078C218.245 46.6669 217.701 46.4371 217.099 46.2184L214.308 45.2035L212.973 48.8678ZM222.339 62.9673L228.122 47.098L234.268 49.3328C235.659 49.8385 236.785 50.4288 237.646 51.1036C238.514 51.7597 239.084 52.531 239.357 53.4176C239.656 54.2923 239.593 55.3122 239.168 56.4772C238.84 57.3792 238.415 58.1078 237.893 58.663C237.371 59.2182 236.773 59.5752 236.098 59.734C235.441 59.8997 234.747 59.8493 234.014 59.5828C234.521 59.7673 234.878 60.0141 235.085 60.3234C235.298 60.6138 235.419 60.9555 235.446 61.3484C235.48 61.7225 235.46 62.0983 235.386 62.4759C235.331 62.8602 235.27 63.2318 235.203 63.5905C235.155 63.9561 235.143 64.2816 235.167 64.5669C235.216 64.8402 235.359 65.0623 235.595 65.2331C235.837 65.3852 236.228 65.4527 236.766 65.4356L236.068 67.3523C235.499 67.571 234.911 67.6342 234.306 67.5419C233.701 67.4496 233.17 67.2138 232.712 66.8345C232.254 66.4553 231.946 65.9282 231.788 65.2534C231.655 64.5667 231.766 63.7347 232.122 62.7576C232.307 62.2502 232.44 61.7984 232.521 61.4021C232.627 60.9938 232.63 60.6333 232.531 60.3207C232.458 59.9961 232.258 59.6997 231.93 59.4315C231.627 59.1513 231.16 58.8856 230.528 58.6345C229.921 58.3714 229.109 58.0869 228.093 57.781L225.751 64.2077L222.339 62.9673ZM228.976 55.357L231.373 56.2283C232.275 56.5564 233.018 56.7947 233.603 56.9434C234.206 57.0988 234.7 57.0869 235.084 56.9076C235.469 56.7282 235.781 56.3097 236.021 55.652C236.302 54.8815 236.328 54.2845 236.099 53.8608C235.877 53.4183 235.447 53.0493 234.81 52.7537C234.173 52.4582 233.365 52.1327 232.388 51.7773L230.527 51.1007L228.976 55.357ZM238.281 68.7634L244.063 52.8941L255.707 57.1279L254.649 60.0312L246.332 57.0071L245.038 60.5586L251.354 62.8549L250.347 65.6172L244.031 63.3209L242.604 67.2389L251.231 70.3758L250.235 73.11L238.281 68.7634ZM269.43 62.1174L273.152 63.4706L262.294 77.4946L256.627 75.4341L257.335 57.7196L261.056 59.0728L259.932 75.0396L269.43 62.1174ZM269.531 80.1259L275.314 64.2567L286.958 68.4904L285.9 71.3937L277.583 68.3696L276.288 71.9211L282.604 74.2174L281.597 76.9797L275.282 74.6834L273.854 78.6014L282.482 81.7383L281.485 84.4725L269.531 80.1259Z" fill="black"/>
<path d="M391.307 124.517L397.008 108.714L400.423 109.947L394.721 125.749L391.307 124.517ZM391.276 124.602L392.325 121.695L403.076 125.575L402.027 128.482L391.276 124.602ZM411.132 132.214C408.536 131.277 406.819 129.818 405.982 127.836C405.152 125.835 405.195 123.565 406.111 121.025C406.716 119.351 407.53 118.008 408.554 116.995C409.604 115.971 410.844 115.334 412.274 115.084C413.71 114.816 415.322 115.004 417.109 115.649C419.724 116.593 421.437 118.061 422.248 120.055C423.067 122.03 423.021 124.278 422.112 126.799C421.521 128.436 420.697 129.776 419.641 130.819C418.591 131.844 417.347 132.49 415.911 132.758C414.475 133.027 412.882 132.845 411.132 132.214ZM412.267 128.892C413.321 129.272 414.273 129.371 415.126 129.19C415.978 129.008 416.709 128.602 417.319 127.972C417.936 127.323 418.414 126.528 418.754 125.587C419.093 124.647 419.232 123.73 419.172 122.836C419.112 121.943 418.815 121.144 418.282 120.442C417.767 119.746 416.974 119.204 415.902 118.817C414.397 118.274 413.07 118.327 411.922 118.976C410.792 119.631 409.956 120.712 409.413 122.217C409.08 123.139 408.944 124.046 409.005 124.94C409.091 125.821 409.391 126.61 409.905 127.306C410.426 127.983 411.214 128.512 412.267 128.892ZM435.525 122.614L439.137 123.917L435.773 127.583L429.595 138.43L424.121 136.454L426.382 119.314L429.994 120.618L427.339 136.021L435.525 122.614ZM444.612 125.893L448.224 127.196L439.133 141.872L433.659 139.896L435.773 127.583L435.469 122.593L439.137 123.917L436.905 139.473L444.612 125.893ZM450.436 145.951L456.168 130.063L462.32 132.283C463.712 132.785 464.839 133.373 465.702 134.046C466.572 134.7 467.145 135.47 467.42 136.356C467.721 137.23 467.662 138.25 467.241 139.417C466.915 140.32 466.492 141.05 465.972 141.606C465.453 142.163 464.856 142.522 464.181 142.682C463.525 142.849 462.831 142.801 462.097 142.536C462.605 142.719 462.963 142.965 463.17 143.274C463.384 143.564 463.506 143.906 463.534 144.298C463.569 144.673 463.55 145.049 463.478 145.426C463.424 145.811 463.364 146.183 463.299 146.542C463.252 146.908 463.241 147.233 463.265 147.518C463.316 147.792 463.459 148.013 463.695 148.184C463.938 148.335 464.329 148.402 464.867 148.383L464.174 150.302C463.606 150.522 463.019 150.587 462.414 150.496C461.809 150.406 461.277 150.171 460.818 149.793C460.359 149.415 460.05 148.888 459.889 148.214C459.754 147.527 459.863 146.695 460.216 145.716C460.399 145.208 460.53 144.756 460.61 144.359C460.715 143.951 460.717 143.59 460.617 143.278C460.543 142.953 460.342 142.657 460.013 142.39C459.71 142.11 459.242 141.846 458.609 141.596C458.002 141.335 457.189 141.052 456.172 140.749L453.85 147.183L450.436 145.951ZM457.047 138.322L459.446 139.187C460.349 139.513 461.093 139.75 461.678 139.897C462.281 140.051 462.775 140.038 463.159 139.857C463.543 139.677 463.854 139.258 464.091 138.599C464.37 137.828 464.394 137.231 464.164 136.807C463.941 136.365 463.51 135.997 462.872 135.703C462.234 135.409 461.426 135.086 460.447 134.733L458.585 134.061L457.047 138.322ZM465.707 151.461L476.265 137.315L481.852 139.331L481.115 157.021L477.474 155.708L478.634 139.765L469.376 152.785L465.707 151.461ZM470.875 148.542L471.737 145.887L479.92 148.84L478.945 151.454L470.875 148.542ZM489.934 160.523C488.447 159.986 487.201 159.197 486.196 158.153C485.19 157.11 484.538 155.854 484.239 154.385C483.965 152.904 484.16 151.274 484.823 149.493C485.48 147.732 486.381 146.356 487.525 145.365C488.688 144.381 489.996 143.79 491.45 143.592C492.91 143.375 494.411 143.545 495.954 144.101C497.478 144.651 498.678 145.392 499.553 146.325C500.428 147.257 501.001 148.293 501.27 149.432C501.559 150.578 501.596 151.74 501.384 152.918L497.857 151.645C498.029 150.814 497.961 150.12 497.652 149.562C497.349 148.985 496.925 148.513 496.377 148.145C495.848 147.784 495.32 147.508 494.793 147.318C493.232 146.755 491.894 146.75 490.78 147.305C489.665 147.86 488.83 148.908 488.273 150.451C487.676 152.107 487.609 153.529 488.074 154.717C488.538 155.905 489.56 156.784 491.141 157.354C491.705 157.558 492.309 157.68 492.953 157.721C493.617 157.769 494.252 157.658 494.86 157.389C495.493 157.107 496.008 156.591 496.406 155.842L499.934 157.115C499.338 158.176 498.557 159.074 497.59 159.809C496.63 160.526 495.502 160.97 494.208 161.14C492.939 161.299 491.514 161.093 489.934 160.523ZM502.62 164.208L507.986 149.336L511.372 150.558L506.006 165.43L502.62 164.208ZM500.348 163.962L501.397 161.056L508.932 163.774L507.883 166.681L500.348 163.962ZM505.032 150.981L506.081 148.075L513.615 150.793L512.566 153.7L505.032 150.981ZM527.85 155.93L531.406 157.214L525.674 173.101L519.155 170.749L520.143 154.84L520.087 154.819L514.894 169.211L511.367 167.938L517.099 152.051L523.138 154.23L522.601 170.302L522.658 170.322L527.85 155.93ZM535.33 176.937C533.788 176.38 532.536 175.577 531.574 174.529C530.632 173.487 530.068 172.252 529.881 170.824C529.702 169.377 529.94 167.773 530.597 166.011C531.298 164.244 532.221 162.866 533.365 161.875C534.528 160.892 535.836 160.301 537.29 160.102C538.743 159.904 540.251 160.086 541.812 160.65C544.051 161.458 545.593 162.546 546.439 163.914C547.285 165.282 547.583 166.932 547.333 168.861L543.876 168.188C543.972 167.393 543.865 166.717 543.556 166.159C543.273 165.589 542.87 165.114 542.348 164.734C541.826 164.354 541.264 164.056 540.662 163.839C538.969 163.228 537.561 163.241 536.438 163.877C535.341 164.502 534.544 165.533 534.047 166.969C533.449 168.625 533.446 170.048 534.037 171.239C534.647 172.437 535.798 173.342 537.491 173.953C538.093 174.17 538.703 174.305 539.322 174.358C539.966 174.4 540.582 174.313 541.169 174.1C541.757 173.887 542.26 173.494 542.679 172.923L539.659 171.833L540.545 169.378L546.725 171.608L543.823 179.651L541.537 178.826L541.641 176.152L541.585 176.132C541.312 176.416 540.967 176.664 540.551 176.875C540.135 177.086 539.653 177.242 539.107 177.342C538.586 177.431 538.006 177.445 537.369 177.385C536.725 177.344 536.045 177.195 535.33 176.937Z" fill="#150505"/>
<path d="M361.065 88.9836L358.414 99.2806L367.526 95.289L359.132 101.024L367.697 105.089L358.477 102.902L361.478 112.643L356.833 103.815L352.512 113.525L355.164 103.228L346.051 107.22L354.446 101.485L345.881 97.42L355.101 99.6068L352.1 89.8663L356.744 98.6936L361.065 88.9836Z" fill="black"/>
<path d="M129.051 3.8344L126.399 14.1314L135.511 10.1398L127.117 15.8746L135.682 19.9397L126.462 17.753L129.463 27.4934L124.819 18.6661L120.497 28.3761L123.149 18.0792L114.037 22.0708L122.431 16.3359L113.866 12.2709L123.086 14.4576L120.085 4.71713L124.729 13.5444L129.051 3.8344Z" fill="black"/>
<path d="M679.185 229.599L684.968 213.73L696.612 217.963L695.554 220.867L687.237 217.843L685.943 221.394L692.258 223.69L691.251 226.453L684.936 224.156L683.508 228.074L692.136 231.211L691.139 233.945L679.185 229.599ZM693.81 234.916L699.593 219.047L705.513 221.2L703.299 236.739L703.356 236.759L711.603 223.414L717.496 225.557L711.713 241.426L708.189 240.145L713.691 225.833L713.635 225.813L705.257 239.078L700.295 237.274L702.442 221.743L702.385 221.723L697.334 236.198L693.81 234.916ZM720.679 244.686L726.461 228.817L733.002 231.195C733.434 231.352 733.916 231.548 734.448 231.784C734.979 232.02 735.503 232.306 736.019 232.643C736.554 232.986 737.001 233.394 737.361 233.865C737.741 234.343 737.985 234.9 738.094 235.536C738.209 236.153 738.12 236.865 737.826 237.673C737.607 238.274 737.279 238.794 736.843 239.231C736.414 239.649 735.831 239.906 735.094 240C734.357 240.094 733.374 239.959 732.144 239.597L732.102 239.71C733.468 240.228 734.452 240.798 735.055 241.422C735.683 242.033 736.039 242.663 736.123 243.31C736.225 243.965 736.146 244.649 735.886 245.363C735.584 246.19 735.175 246.818 734.657 247.246C734.138 247.675 733.562 247.944 732.926 248.053C732.29 248.163 731.638 248.17 730.97 248.076C730.301 247.982 729.641 247.838 728.988 247.643C728.354 247.455 727.793 247.273 727.304 247.095L720.679 244.686ZM725.03 243.172L727.99 244.248C728.667 244.494 729.298 244.691 729.882 244.84C730.492 244.977 731.027 244.969 731.487 244.817C731.972 244.653 732.335 244.242 732.574 243.584C732.821 242.908 732.808 242.36 732.534 241.942C732.287 241.511 731.876 241.149 731.302 240.855C730.747 240.568 730.121 240.298 729.426 240.045L726.55 239L725.03 243.172ZM727.446 236.453L730.237 237.468C730.82 237.68 731.376 237.85 731.904 237.978C732.457 238.094 732.938 238.088 733.347 237.96C733.781 237.82 734.108 237.449 734.327 236.848C734.546 236.246 734.54 235.766 734.31 235.405C734.086 235.026 733.718 234.722 733.205 234.493C732.718 234.252 732.174 234.022 731.573 233.803L728.781 232.788L727.446 236.453ZM736.813 250.552L742.596 234.683L748.742 236.918C750.133 237.423 751.259 238.014 752.12 238.689C752.988 239.345 753.558 240.116 753.831 241.003C754.13 241.877 754.067 242.897 753.642 244.062C753.313 244.964 752.888 245.693 752.367 246.248C751.845 246.803 751.247 247.16 750.572 247.319C749.915 247.485 749.22 247.434 748.487 247.168C748.995 247.352 749.352 247.599 749.559 247.908C749.772 248.199 749.892 248.54 749.919 248.933C749.953 249.307 749.933 249.683 749.86 250.061C749.805 250.445 749.744 250.817 749.677 251.176C749.629 251.541 749.617 251.867 749.641 252.152C749.69 252.425 749.833 252.647 750.068 252.818C750.311 252.97 750.701 253.038 751.24 253.021L750.541 254.937C749.972 255.156 749.385 255.219 748.78 255.127C748.175 255.035 747.644 254.799 747.186 254.42C746.728 254.04 746.42 253.513 746.261 252.838C746.128 252.152 746.24 251.32 746.596 250.343C746.781 249.835 746.914 249.383 746.994 248.987C747.1 248.579 747.104 248.218 747.005 247.906C746.932 247.581 746.731 247.285 746.403 247.016C746.101 246.736 745.634 246.471 745.001 246.219C744.395 245.956 743.583 245.672 742.566 245.366L740.225 251.793L736.813 250.552ZM743.45 242.942L745.846 243.813C746.748 244.141 747.492 244.38 748.076 244.528C748.679 244.684 749.173 244.672 749.558 244.493C749.943 244.313 750.255 243.895 750.494 243.237C750.775 242.466 750.801 241.869 750.572 241.446C750.35 241.003 749.921 240.634 749.284 240.339C748.646 240.043 747.839 239.718 746.861 239.362L745.001 238.686L743.45 242.942ZM752.754 256.348L758.537 240.479L770.181 244.713L769.123 247.616L760.806 244.592L759.512 248.144L765.827 250.44L764.821 253.202L758.505 250.906L757.077 254.824L765.705 257.961L764.709 260.695L752.754 256.348ZM783.904 249.702L787.625 251.056L776.768 265.08L771.101 263.019L771.808 245.305L775.53 246.658L774.405 262.625L783.904 249.702ZM784.005 267.711L789.787 251.842L801.431 256.075L800.373 258.979L792.056 255.955L790.762 259.506L797.078 261.802L796.071 264.565L789.755 262.268L788.328 266.186L796.955 269.323L795.959 272.057L784.005 267.711Z" fill="black"/>
<path d="M856.54 268.565L853.888 278.862L863.001 274.87L854.606 280.605L863.172 284.67L853.952 282.483L856.953 292.224L852.308 283.396L847.987 293.106L850.638 282.81L841.526 286.801L849.92 281.066L841.355 277.001L850.575 279.188L847.574 269.447L852.219 278.275L856.54 268.565Z" fill="black"/>
</svg>
